<svg fill="#787878" stroke="#999999" preserveAspectRatio="xMidYMid meet" data-bbox="13 0 173.814 199.9" xmlns="http://www.w3.org/2000/svg" viewBox="13 0 173.814 199.9" role="presentation" aria-hidden="true">
    <g>
        <path fill="#787878" d="M182.6 0H17.4C15 0 13 1.9 13 4.3v191.3c0 2.4 1.9 4.3 4.3 4.3h165.2c2.4 0 4.3-1.9 4.3-4.3V4.3C187 1.9 185 0 182.6 0zm-4.3 191.3H21.7V8.7h156.5v182.6z"></path>
        <path fill="#787878" d="M52.2 147.8h95.7c2.4 0 4.3-1.9 4.3-4.3s-1.9-4.3-4.3-4.3H52.2c-2.4 0-4.3 1.9-4.3 4.3-.1 2.3 1.9 4.3 4.3 4.3z"></path>
        <path fill="#787878" d="M52.2 169.6h95.7c2.4 0 4.3-1.9 4.3-4.3s-1.9-4.3-4.3-4.3H52.2c-2.4 0-4.3 1.9-4.3 4.3-.1 2.3 1.9 4.3 4.3 4.3z"></path>
        <path fill="#787878" d="M52.2 125.9h95.7c2.4 0 4.3-1.9 4.3-4.3s-1.9-4.3-4.3-4.3H52.2c-2.4 0-4.3 1.9-4.3 4.3s1.9 4.3 4.3 4.3z"></path>
        <path fill="#787878" d="M72.5 75.1c0 11.2 12.1 20 27.5 20s27.5-8.8 27.5-20c0-7.1-4.9-16.2-11.5-22.2.8-2.6 1.3-5.2 1.3-7.5 0-9.5-7.7-17.2-17.2-17.2S82.8 36 82.8 45.5c0 2.3.4 4.9 1.3 7.4-6.7 6-11.6 15.2-11.6 22.2zM100 37c4.7 0 8.5 3.8 8.5 8.5 0 5.9-5 14.4-8.5 14.4s-8.5-8.5-8.5-14.4c0-4.7 3.8-8.5 8.5-8.5zm0 31.6c4.8 0 8.9-3.1 11.9-7.4 4.2 4.5 6.9 10.3 6.9 14 0 6.1-8.6 11.3-18.8 11.3-10.2 0-18.8-5.2-18.8-11.3 0-3.6 2.7-9.5 6.9-14 3 4.3 7.1 7.4 11.9 7.4z"></path>
    </g>
</svg>